<svg width="35" height="31" viewBox="0 0 35 31" fill="none" xmlns="http://www.w3.org/2000/svg">
<path d="M27.546 22.6005V30.8491L20.6587 26.3146L17.2166 24.0489L13.773 26.3146L6.88574 30.8491V22.6005L10.9512 19.9254L13.773 18.0676L17.2166 15.8004L20.6587 18.0676L23.4775 19.9254H23.4806L27.546 22.6005Z" fill="#4F5762"/>
<path d="M6.88573 12.7799V22.6005L0 27.135V9.06589L3.49405 6.76809L6.88573 4.53294L10.9512 1.85779L13.773 0V8.24699L9.75797 10.8916L6.88573 12.7799Z" fill="#0984E3"/>
<path d="M34.4347 9.06894V27.1365L27.546 22.6005V12.7799L24.6737 10.8916L20.6587 8.24699V0L23.4805 1.85779L27.546 4.53294L30.9376 6.76809H30.9407L34.4347 9.06894Z" fill="#0984E3"/>
</svg>
